<svg width="183" height="25" viewBox="0 0 183 25" fill="none" xmlns="http://www.w3.org/2000/svg">
<path fill-rule="evenodd" clip-rule="evenodd" d="M31.2773 0.0805652C31.1777 0.119302 30.0065 0.608603 28.6746 1.16785C27.3427 1.72709 26.14 2.21022 26.0018 2.24142C25.7002 2.30955 25.6078 2.29299 24.8275 2.03039C23.9762 1.74402 23.132 1.53403 22.292 1.39975C21.3102 1.24283 18.817 1.22871 17.8889 1.37488C16.9719 1.51928 16.1854 1.70939 15.3141 1.99716C14.7327 2.18918 14.4374 2.26053 14.2268 2.2597C13.9714 2.25871 13.6267 2.13217 11.2657 1.17278C8.60496 0.0915216 8.59213 0.0869522 8.2075 0.0886657C7.74907 0.0906909 7.50493 0.19849 7.20768 0.530298C6.81404 0.969646 6.84468 0.447736 6.82676 7.0191C6.81008 13.1402 6.82501 13.7171 7.02472 14.6773C7.36846 16.3298 8.07943 17.8509 9.11241 19.1439C9.57892 19.7278 10.5662 20.7049 11.1428 21.1533C13.2205 22.7691 15.7738 23.7718 18.5283 24.0537C19.3167 24.1343 21.3155 24.0908 22.086 23.9762C26.6017 23.3046 30.3277 20.7673 32.0757 17.1738C32.6615 15.9695 33.017 14.6662 33.1318 13.3022C33.1729 12.813 33.1858 10.8591 33.1743 6.83736C33.158 1.1194 33.157 1.07168 33.0503 0.839311C32.9193 0.554028 32.6768 0.301719 32.3923 0.154612C32.1269 0.0174229 31.5397 -0.0215736 31.2773 0.0805652ZM15.9713 12.5848C16.5313 12.796 17.0759 13.3895 17.2489 13.9772C17.6606 15.3753 16.6235 16.7812 15.1806 16.7812C13.99 16.7812 13.0392 15.8154 13.0392 14.6059C13.0392 13.5695 13.7521 12.6839 14.7567 12.4723C15.0678 12.4068 15.6399 12.4597 15.9713 12.5848ZM25.1732 12.4706C26.1951 12.6393 26.9615 13.5513 26.9615 14.5985C26.9615 16.707 24.3442 17.5789 23.0808 15.8911C22.5751 15.2157 22.5258 14.2381 22.9597 13.4915C23.2411 13.0074 23.8347 12.5845 24.3866 12.475C24.6973 12.4134 24.8222 12.4127 25.1732 12.4706Z" fill="white"/>
<path d="M40 3.93562C40 1.76204 38.238 1.52588e-05 36.0644 1.52588e-05V1.52588e-05C35.4123 1.52588e-05 34.8837 0.528624 34.8837 1.1807V11.7948C34.8837 12.4469 35.4123 12.9755 36.0644 12.9755V12.9755C38.238 12.9755 40 11.2134 40 9.03987V3.93562Z" fill="white"/>
<path d="M0 3.97536C0 1.77983 1.77983 0 3.97536 0V0C4.63401 0 5.16796 0.533948 5.16796 1.19261V11.835C5.16796 12.4936 4.63401 13.0276 3.97536 13.0276V13.0276C1.77983 13.0276 0 11.2477 0 9.05221V3.97536Z" fill="white"/>
<path d="M51.6895 19V10.6797H50.2637V8.58008H51.6895V7.78906C51.6895 6.7474 51.9564 5.98568 52.4902 5.50391C53.0306 5.02214 53.9128 4.78125 55.1367 4.78125C55.6966 4.78125 56.1816 4.82357 56.5918 4.9082V6.79297C56.3835 6.75391 56.1263 6.73438 55.8203 6.73438C54.9219 6.73438 54.4727 7.11849 54.4727 7.88672V8.58008H56.5527V10.6797H54.541V19H51.6895ZM66.3574 17.7793C65.4264 18.7428 64.1634 19.2246 62.5684 19.2246C60.9733 19.2246 59.7103 18.7396 58.7793 17.7695C57.8483 16.7995 57.3828 15.4616 57.3828 13.7559C57.3828 12.0697 57.8516 10.7415 58.7891 9.77148C59.7331 8.79492 60.9928 8.30664 62.5684 8.30664C64.1504 8.30664 65.4102 8.79492 66.3477 9.77148C67.2852 10.7415 67.7539 12.0697 67.7539 13.7559C67.7539 15.4681 67.2884 16.8092 66.3574 17.7793ZM62.5684 17.0469C63.2715 17.0469 63.8281 16.7604 64.2383 16.1875C64.6484 15.6146 64.8535 14.8073 64.8535 13.7656C64.8535 12.737 64.6484 11.9329 64.2383 11.3535C63.8281 10.7741 63.2715 10.4844 62.5684 10.4844C61.8652 10.4844 61.3053 10.7741 60.8887 11.3535C60.4785 11.9329 60.2734 12.737 60.2734 13.7656C60.2734 14.8073 60.4785 15.6146 60.8887 16.1875C61.2988 16.7604 61.8587 17.0469 62.5684 17.0469ZM69.2285 19V8.53125H71.9824V10.416H72.041C72.2233 9.75195 72.5293 9.24414 72.959 8.89258C73.3887 8.54102 73.9128 8.36523 74.5312 8.36523C74.8307 8.36523 75.1009 8.40104 75.3418 8.47266V10.9824C75.0749 10.8717 74.7298 10.8164 74.3066 10.8164C73.6035 10.8164 73.0566 11.0215 72.666 11.4316C72.2754 11.8418 72.0801 12.4147 72.0801 13.1504V19H69.2285ZM80.7227 4.9082H86.1035C88.2259 4.9082 89.8763 5.51693 91.0547 6.73438C92.2331 7.95182 92.8223 9.67383 92.8223 11.9004C92.8223 14.1335 92.2298 15.875 91.0449 17.125C89.8665 18.375 88.2194 19 86.1035 19H80.7227V4.9082ZM83.6719 7.33984V16.5586H85.752C87.0736 16.5586 88.0794 16.1647 88.7695 15.377C89.4661 14.5827 89.8145 13.4271 89.8145 11.9102C89.8145 10.4388 89.4629 9.30924 88.7598 8.52148C88.0566 7.73372 87.054 7.33984 85.752 7.33984H83.6719ZM99.1797 10.416C98.5612 10.416 98.0436 10.6276 97.627 11.0508C97.2168 11.474 96.9857 12.0143 96.9336 12.6719H101.377C101.344 12.0013 101.126 11.4577 100.723 11.041C100.326 10.6243 99.8112 10.416 99.1797 10.416ZM101.416 15.7969H104.033C103.877 16.8255 103.363 17.6556 102.49 18.2871C101.624 18.9121 100.547 19.2246 99.2578 19.2246C97.6497 19.2246 96.3867 18.7428 95.4688 17.7793C94.5573 16.8158 94.1016 15.4941 94.1016 13.8145C94.1016 12.1413 94.5573 10.8066 95.4688 9.81055C96.3802 8.80794 97.6074 8.30664 99.1504 8.30664C100.667 8.30664 101.875 8.7819 102.773 9.73242C103.672 10.6829 104.121 11.9557 104.121 13.5508V14.4199H96.9043V14.5957C96.9043 15.3444 97.1224 15.9531 97.5586 16.4219C98.0013 16.8841 98.584 17.1152 99.3066 17.1152C99.8275 17.1152 100.277 16.998 100.654 16.7637C101.032 16.5228 101.286 16.2005 101.416 15.7969ZM115.01 8.53125L111.416 19H108.193L104.57 8.53125H107.627L109.805 16.4805H109.863L112.031 8.53125H115.01ZM120.41 10.416C119.792 10.416 119.274 10.6276 118.857 11.0508C118.447 11.474 118.216 12.0143 118.164 12.6719H122.607C122.575 12.0013 122.357 11.4577 121.953 11.041C121.556 10.6243 121.042 10.416 120.41 10.416ZM122.646 15.7969H125.264C125.107 16.8255 124.593 17.6556 123.721 18.2871C122.855 18.9121 121.777 19.2246 120.488 19.2246C118.88 19.2246 117.617 18.7428 116.699 17.7793C115.788 16.8158 115.332 15.4941 115.332 13.8145C115.332 12.1413 115.788 10.8066 116.699 9.81055C117.611 8.80794 118.838 8.30664 120.381 8.30664C121.898 8.30664 123.105 8.7819 124.004 9.73242C124.902 10.6829 125.352 11.9557 125.352 13.5508V14.4199H118.135V14.5957C118.135 15.3444 118.353 15.9531 118.789 16.4219C119.232 16.8841 119.814 17.1152 120.537 17.1152C121.058 17.1152 121.507 16.998 121.885 16.7637C122.262 16.5228 122.516 16.2005 122.646 15.7969ZM126.895 19V4.9082H129.746V19H126.895ZM140.264 17.7793C139.333 18.7428 138.07 19.2246 136.475 19.2246C134.88 19.2246 133.617 18.7396 132.686 17.7695C131.755 16.7995 131.289 15.4616 131.289 13.7559C131.289 12.0697 131.758 10.7415 132.695 9.77148C133.639 8.79492 134.899 8.30664 136.475 8.30664C138.057 8.30664 139.316 8.79492 140.254 9.77148C141.191 10.7415 141.66 12.0697 141.66 13.7559C141.66 15.4681 141.195 16.8092 140.264 17.7793ZM136.475 17.0469C137.178 17.0469 137.734 16.7604 138.145 16.1875C138.555 15.6146 138.76 14.8073 138.76 13.7656C138.76 12.737 138.555 11.9329 138.145 11.3535C137.734 10.7741 137.178 10.4844 136.475 10.4844C135.771 10.4844 135.212 10.7741 134.795 11.3535C134.385 11.9329 134.18 12.737 134.18 13.7656C134.18 14.8073 134.385 15.6146 134.795 16.1875C135.205 16.7604 135.765 17.0469 136.475 17.0469ZM149.248 8.36523C150.576 8.36523 151.621 8.84375 152.383 9.80078C153.151 10.7578 153.535 12.0794 153.535 13.7656C153.535 15.4453 153.158 16.7669 152.402 17.7305C151.647 18.6875 150.612 19.166 149.297 19.166C148.548 19.166 147.887 18.9967 147.314 18.6582C146.748 18.3132 146.325 17.8411 146.045 17.2422H145.986V22.418H143.135V8.53125H145.947V10.3574H146.006C146.292 9.73242 146.715 9.24414 147.275 8.89258C147.842 8.54102 148.499 8.36523 149.248 8.36523ZM148.291 16.8711C149.001 16.8711 149.564 16.5911 149.98 16.0312C150.404 15.4714 150.615 14.7161 150.615 13.7656C150.615 12.8151 150.404 12.0599 149.98 11.5C149.564 10.9336 149.001 10.6504 148.291 10.6504C147.594 10.6504 147.035 10.9368 146.611 11.5098C146.188 12.0762 145.977 12.8281 145.977 13.7656C145.977 14.7096 146.185 15.4648 146.602 16.0312C147.025 16.5911 147.588 16.8711 148.291 16.8711ZM159.707 10.416C159.089 10.416 158.571 10.6276 158.154 11.0508C157.744 11.474 157.513 12.0143 157.461 12.6719H161.904C161.872 12.0013 161.654 11.4577 161.25 11.041C160.853 10.6243 160.339 10.416 159.707 10.416ZM161.943 15.7969H164.561C164.404 16.8255 163.89 17.6556 163.018 18.2871C162.152 18.9121 161.074 19.2246 159.785 19.2246C158.177 19.2246 156.914 18.7428 155.996 17.7793C155.085 16.8158 154.629 15.4941 154.629 13.8145C154.629 12.1413 155.085 10.8066 155.996 9.81055C156.908 8.80794 158.135 8.30664 159.678 8.30664C161.195 8.30664 162.402 8.7819 163.301 9.73242C164.199 10.6829 164.648 11.9557 164.648 13.5508V14.4199H157.432V14.5957C157.432 15.3444 157.65 15.9531 158.086 16.4219C158.529 16.8841 159.111 17.1152 159.834 17.1152C160.355 17.1152 160.804 16.998 161.182 16.7637C161.559 16.5228 161.813 16.2005 161.943 15.7969ZM166.123 19V8.53125H168.877V10.416H168.936C169.118 9.75195 169.424 9.24414 169.854 8.89258C170.283 8.54102 170.807 8.36523 171.426 8.36523C171.725 8.36523 171.995 8.40104 172.236 8.47266V10.9824C171.969 10.8717 171.624 10.8164 171.201 10.8164C170.498 10.8164 169.951 11.0215 169.561 11.4316C169.17 11.8418 168.975 12.4147 168.975 13.1504V19H166.123ZM173.232 11.6074C173.232 10.6113 173.633 9.8138 174.434 9.21484C175.234 8.60938 176.305 8.30664 177.646 8.30664C178.955 8.30664 180.007 8.61263 180.801 9.22461C181.595 9.83659 182.002 10.6504 182.021 11.666H179.395C179.362 11.2428 179.186 10.9108 178.867 10.6699C178.555 10.429 178.135 10.3086 177.607 10.3086C177.113 10.3086 176.715 10.4128 176.416 10.6211C176.123 10.8229 175.977 11.0931 175.977 11.4316C175.977 11.9395 176.432 12.3008 177.344 12.5156L179.346 12.9453C180.394 13.1797 181.146 13.5215 181.602 13.9707C182.064 14.4134 182.295 15.0254 182.295 15.8066C182.295 16.8353 181.865 17.6621 181.006 18.2871C180.146 18.9121 179.023 19.2246 177.637 19.2246C176.257 19.2246 175.153 18.9186 174.326 18.3066C173.499 17.6947 173.047 16.8711 172.969 15.8359H175.752C175.824 16.2786 176.025 16.6204 176.357 16.8613C176.696 17.1022 177.148 17.2227 177.715 17.2227C178.255 17.2227 178.678 17.125 178.984 16.9297C179.297 16.7279 179.453 16.4544 179.453 16.1094C179.453 15.8424 179.355 15.6309 179.16 15.4746C178.965 15.3118 178.633 15.1751 178.164 15.0645L176.23 14.6348C174.232 14.179 173.232 13.1699 173.232 11.6074Z" fill="white"/>
</svg>
