<svg width="40" height="24" viewBox="0 0 40 24" fill="none" xmlns="http://www.w3.org/2000/svg">
<g clip-path="url(#clip0_1_94)">
<path fill-rule="evenodd" clip-rule="evenodd" d="M31.2773 0.0773279C31.1777 0.114515 30.0065 0.584244 28.6746 1.12112C27.3427 1.65799 26.14 2.1218 26.0018 2.15175C25.7002 2.21715 25.6078 2.20126 24.8275 1.94916C23.9762 1.67424 23.132 1.47265 22.292 1.34375C21.3102 1.1931 18.817 1.17955 17.8889 1.31987C16.9719 1.45849 16.1854 1.641 15.3141 1.91726C14.7327 2.1016 14.4374 2.17009 14.2268 2.1693C13.9714 2.16835 13.6267 2.04687 11.2657 1.12585C8.60496 0.0878461 8.59213 0.0834595 8.2075 0.0851044C7.74907 0.0870486 7.50493 0.190536 7.20768 0.509071C6.81404 0.930846 6.84468 0.429812 6.82676 6.73832C6.81008 12.6146 6.82501 13.1684 7.02472 14.0902C7.36846 15.6766 8.07943 17.1368 9.11241 18.3781C9.57892 18.9387 10.5662 19.8767 11.1428 20.3072C13.2205 21.8583 15.7738 22.8209 18.5283 23.0915C19.3167 23.1689 21.3155 23.1272 22.086 23.0171C26.6017 22.3724 30.3277 19.9366 32.0757 16.4868C32.6615 15.3307 33.017 14.0795 33.1318 12.7701C33.1729 12.3005 33.1858 10.4247 33.1743 6.56385C33.158 1.07461 33.157 1.0288 33.0503 0.805724C32.9193 0.531852 32.6768 0.289636 32.3923 0.148413C32.1269 0.0167113 31.5397 -0.0207253 31.2773 0.0773279ZM15.9713 12.0814C16.5313 12.2841 17.0759 12.8539 17.2489 13.4181C17.6606 14.7603 16.6235 16.1099 15.1806 16.1099C13.99 16.1099 13.0392 15.1828 13.0392 14.0216C13.0392 13.0267 13.7521 12.1765 14.7567 11.9734C15.0678 11.9105 15.6399 11.9613 15.9713 12.0814ZM25.1732 11.9718C26.1951 12.1337 26.9615 13.0092 26.9615 14.0145C26.9615 16.0387 24.3442 16.8757 23.0808 15.2554C22.5751 14.6071 22.5258 13.6686 22.9597 12.9518C23.2411 12.4871 23.8347 12.0811 24.3866 11.976C24.6973 11.9169 24.8222 11.9162 25.1732 11.9718Z" fill="#00A3FF"/>
<path d="M40 3.77821C40 1.69157 38.238 3.05176e-05 36.0644 3.05176e-05C35.4123 3.05176e-05 34.8837 0.507495 34.8837 1.13349V11.323C34.8837 11.949 35.4123 12.4565 36.0644 12.4565C38.238 12.4565 40 10.7649 40 8.67829V3.77821Z" fill="#00A3FF"/>
<path d="M0 3.81635C0 1.70864 1.77983 0 3.97536 0C4.63401 0 5.16796 0.51259 5.16796 1.14491V11.3616C5.16796 11.9939 4.63401 12.5065 3.97536 12.5065C1.77983 12.5065 0 10.7978 0 8.69012V3.81635Z" fill="#00A3FF"/>
</g>
<defs>
<clipPath id="clip0_1_94">
<rect width="40" height="24" fill="white"/>
</clipPath>
</defs>
</svg>
