<svg width="398" height="152" viewBox="0 0 398 152" fill="none" xmlns="http://www.w3.org/2000/svg">
<path d="M250.209 0.829934L250.209 0.829893C250.932 0.547635 252.182 0.442422 253.498 0.53007C254.811 0.617475 256.073 0.888842 256.819 1.27558C258.515 2.15419 259.962 3.66539 260.739 5.36322C260.889 5.69078 260.999 5.93487 261.088 6.67466C261.182 7.44541 261.248 8.72562 261.298 11.1131C261.396 15.8792 261.423 24.9745 261.475 43.0304C261.547 68.4421 261.465 80.7478 261.209 83.8083C260.491 92.3612 258.267 100.531 254.605 108.079C243.679 130.598 220.368 146.535 192.064 150.755C189.671 151.112 185.338 151.362 180.966 151.457C176.594 151.552 172.232 151.493 169.782 151.241C152.522 149.471 136.531 143.173 123.523 133.031L123.215 133.425L123.523 133.031C119.923 130.224 113.733 124.082 110.818 120.425L110.427 120.737L110.818 120.425C104.362 112.324 99.9175 102.791 97.7681 92.4315C96.5239 86.434 96.4266 82.8627 96.5318 44.1779C96.5396 41.2888 96.546 38.6172 96.5519 36.146C96.5884 20.8594 96.6066 13.2379 96.8431 9.19951C96.9811 6.84233 97.1916 5.7837 97.481 5.1484C97.6197 4.84393 97.7821 4.62561 97.9913 4.39464C98.0875 4.2884 98.1905 4.18275 98.3089 4.06131C98.3239 4.04587 98.3392 4.03019 98.3548 4.01421C98.4906 3.87485 98.6413 3.71883 98.8037 3.53705L98.8038 3.53702C99.7128 2.51963 100.51 1.88052 101.401 1.48585C102.294 1.09065 103.324 0.921471 104.73 0.915242L104.73 0.915242C105.335 0.91254 105.754 0.913263 106.316 1.01254C106.885 1.11316 107.615 1.31822 108.815 1.74477C111.219 2.59915 115.414 4.30704 123.801 7.72379L123.989 7.26074L123.801 7.72379C131.233 10.7515 135.502 12.4695 138.114 13.431C140.715 14.3881 141.735 14.6205 142.637 14.6239C144.058 14.6296 145.995 14.1493 149.644 12.9408C155.106 11.1324 160.033 9.93838 165.782 9.03074L165.704 8.53686L165.782 9.03074C168.661 8.57609 174.013 8.36692 179.44 8.39769C184.865 8.42844 190.304 8.69862 193.356 9.18761C198.618 10.0309 203.908 11.3499 209.245 13.1498C211.689 13.9745 213.103 14.4298 214.145 14.6175C215.232 14.8133 215.925 14.7195 216.911 14.4962C217.173 14.437 217.851 14.1919 218.797 13.8297C219.765 13.4594 221.058 12.948 222.585 12.3332C225.639 11.1033 229.632 9.45685 233.829 7.69043C242.223 4.15662 249.59 1.07134 250.209 0.829934ZM162.153 87.9717C161.02 84.1149 157.481 80.2437 153.803 78.8524C152.703 78.4365 151.233 78.149 149.8 78.0159C148.369 77.8831 146.922 77.8991 145.873 78.1207C139.311 79.5065 134.659 85.3059 134.659 92.0822C134.659 99.9867 140.863 106.318 148.646 106.318C158.077 106.318 164.837 97.1109 162.153 87.9717ZM223.345 92.0353C223.345 85.1833 218.346 79.2122 211.663 78.1061C210.552 77.9222 209.768 77.8258 209.007 77.83C208.242 77.8343 207.519 77.9398 206.53 78.1366C202.914 78.856 199.053 81.6132 197.208 84.7951C194.378 89.6769 194.695 96.0664 198.003 100.497C206.25 111.542 223.345 105.827 223.345 92.0353Z" fill="white" stroke="white"/>
<path d="M51 31L13.0711 68.9289C9.16582 72.8342 9.16582 79.1658 13.0711 83.0711L51 121" stroke="white" stroke-width="20" stroke-linecap="round"/>
<path d="M347 31L384.929 68.9289C388.834 72.8342 388.834 79.1658 384.929 83.0711L347 121" stroke="white" stroke-width="20" stroke-linecap="round"/>
<rect x="305.354" y="15.6124" width="19" height="119" rx="9.5" transform="rotate(15 305.354 15.6124)" fill="white" stroke="white"/>
</svg>
